<svg xmlns="http://www.w3.org/2000/svg" class="logo-jenkins" viewBox="682 209 74 102" xmlns:xlink="http://www.w3.org/1999/xlink" version="1.1">
<g id="jenkins-logo" fill="none" fill-rule="evenodd" stroke="none" stroke-width="1" transform="translate(719.146 260.113) scale(-1, 1) rotate(-180) translate(-719.146 -260.113) translate(683 210.272)">
<g id="g3393" transform="translate(0)">
<path id="path22" fill="#d33833" d="M 70.7476 51.4586 C 70.7476 31.7815 55.1525 15.8299 35.9148 15.8299 C 16.6775 15.8299 1.0823 31.7815 1.0823 51.4586 C 1.0823 71.1361 16.6775 87.088 35.9148 87.088 C 55.1525 87.088 70.7476 71.1361 70.7476 51.4586"/>
<path id="path24" fill="#ef3d3a" fill-rule="nonzero" d="M 2.50174 42.6346 C 2.50174 42.6346 -0.0199045 79.7894 34.2159 80.8511 L 31.8275 84.832 L 13.2502 78.5951 L 7.9422 72.4912 L 3.29792 63.6003 L 0.643786 53.25 L 1.43996 46.3499"/>
<path id="path26" fill="#231f20" fill-rule="nonzero" d="M 12.0574 75.7639 C 5.94598 69.5107 2.16414 60.877 2.16414 51.3256 L 2.16414 51.3256 C 2.16414 41.7763 5.94598 33.1414 12.0574 26.8894 L 12.0574 26.8894 C 18.1719 20.6373 26.5984 16.7795 35.9143 16.7795 L 35.9143 16.7795 C 45.2305 16.7795 53.6576 20.6373 59.7715 26.8894 L 59.7715 26.8894 C 65.8826 33.1414 69.6652 41.7763 69.6652 51.3256 L 69.6652 51.3256 C 69.6652 60.877 65.8826 69.5107 59.7715 75.7639 L 59.7715 75.7639 C 53.6576 82.0147 45.2305 85.8726 35.9143 85.8734 L 35.9143 85.8734 C 26.5984 85.8726 18.1719 82.0147 12.0574 75.7639 L 12.0574 75.7639 Z M 10.5105 25.377 C 4.01541 32.0194 0 41.1994 0 51.3256 L 0 51.3256 C 0 61.4534 4.01541 70.6326 10.5105 77.2755 L 10.5105 77.2755 C 17.004 83.9196 25.9928 88.0378 35.9143 88.0366 L 35.9143 88.0366 C 45.836 88.0378 54.8256 83.9196 61.3181 77.2755 L 61.3181 77.2755 C 67.8137 70.6326 71.8296 61.4526 71.8288 51.3256 L 71.8288 51.3256 C 71.8296 41.1994 67.8137 32.0194 61.3181 25.377 L 61.3181 25.377 C 54.8256 18.7332 45.836 14.6155 35.9143 14.6155 L 35.9143 14.6155 C 25.9928 14.6155 17.004 18.7332 10.5105 25.377 L 10.5105 25.377 L 10.5105 25.377 Z"/>
<polyline id="path28" fill="#f0d6b7" points="50.5776,51.2611 45.2695,50.465 38.1038,49.6688 33.4592,49.5362 28.9478,49.6688 25.4975,50.7305 22.4454,54.0478 20.0568,60.8153 19.5261,62.2751 16.3414,63.3364 14.4836,66.3885 13.1567,70.7675 14.6166,74.6158 18.0664,75.8101 20.853,74.4829 22.1803,71.5637 23.7726,71.8292 24.3032,72.4924 23.7726,75.5446 23.6397,79.3929 24.4358,84.7006 24.4047,87.7325 26.8244,91.6007 31.0707,94.6529 38.5019,97.8376 46.7289,96.6433 53.8945,91.4682 57.2122,86.1604 59.3352,82.3121 59.8658,72.758 58.2735,64.5307 55.3543,57.2325 52.5677,53.3842"/>
<polyline id="path30" fill="#335061" points="46.0657,28.3049 27.0898,27.5088 27.0898,24.324 28.6822,13.1775 27.886,12.2484 14.6166,16.7604 13.6874,18.3527 12.3605,33.3471 9.30892,42.3706 8.64522,44.4936 19.2607,51.7918 22.5783,53.119 25.4975,49.5362 28.0186,47.2803 30.9382,46.3515 32.265,45.9534 33.8573,39.0533 35.0516,37.5936 38.1038,38.6553 35.9804,34.5414 47.5251,29.1011 46.0657,28.3049"/>
<polyline id="path32" fill="#6d6b6d" points="14.6166,74.6158 18.0664,75.8101 20.853,74.4829 22.1803,71.5637 23.7726,71.8292 24.1707,73.4216 23.3745,76.4733 24.1707,83.7719 23.507,87.7528 25.8955,90.5394 31.0707,94.6529 29.611,96.6433 22.3127,93.0605 19.2607,90.672 17.5357,86.9566 14.8817,83.3738 14.0855,79.1274 14.6166,74.6158"/>
<path id="path34" fill="#dcd9d8" d="M 20.0568 87.0892 C 20.0568 87.0892 22.0473 91.9988 30.0091 94.3873 C 37.9709 96.7759 30.4072 96.1127 30.4072 96.1127 L 21.7822 92.795 L 18.4645 89.4777 L 17.0051 86.8236 L 20.0568 87.0892"/>
<path id="path36" fill="#dcd9d8" d="M 16.076 75.5446 C 16.076 75.5446 13.2893 84.8336 23.9051 86.1604 L 23.507 87.7528 L 16.2089 86.0275 L 14.0855 79.1274 L 14.6166 74.6158 L 16.076 75.5446"/>
<path id="path38" fill="#f7e4cd" d="M 20.3223 63.2038 L 22.0598 64.8873 C 22.0598 64.8873 22.8439 64.7962 22.9764 63.8674 C 23.1089 62.9383 23.507 54.5784 29.2129 50.0665 C 29.7334 49.6549 24.9669 50.7305 24.9669 50.7305 L 20.7204 57.365"/>
<path id="path40" fill="#f7e4cd" d="M 44.7393 65.7249 C 44.7393 65.7249 45.0486 69.7472 46.1318 69.4379 C 47.215 69.1286 47.215 68.0454 47.215 68.0454 C 47.215 68.0454 44.5844 66.3436 44.7393 65.7249"/>
<path id="path42" fill="#f7e4cd" fill-rule="nonzero" d="M 55.7524 80.4542 C 55.7524 80.4542 53.5653 79.9924 53.3639 78.0657 C 53.1624 76.1385 55.7524 77.6676 56.1505 77.8002"/>
<path id="path44" fill="#f7e4cd" fill-rule="nonzero" d="M 39.6962 80.3213 C 39.6962 80.3213 36.7766 79.9232 36.7766 78.0657 C 36.7766 76.2078 40.0943 76.3404 41.0231 77.1365"/>
<path id="path46" fill="#f7e4cd" d="M 21.6492 71.6963 C 21.6492 71.6963 16.6065 74.7484 16.076 71.8288 C 15.5452 68.9096 14.3506 66.7862 16.8721 63.7345 L 15.1471 64.2651 L 13.5548 68.3786 L 13.0242 72.3595 L 16.076 75.5446 L 19.5261 75.2791 L 21.5166 73.6867 L 21.6492 71.6963"/>
<path id="path48" fill="#f7e4cd" d="M 24.0377 80.0561 C 24.0377 80.0561 26.2936 91.7333 37.7057 93.9893 C 47.1011 95.8463 52.0366 93.5912 53.8945 91.4682 C 53.8945 91.4682 45.5346 101.42 37.5728 98.3682 C 29.611 95.3161 23.7726 89.7428 23.9051 86.1604 C 24.1311 80.0585 24.0377 80.0561 24.0377 80.0561"/>
<path id="path50" fill="#f7e4cd" d="M 54.8236 90.1413 C 54.8236 90.1413 50.9757 90.2739 50.8428 86.8236 C 50.8428 86.8236 50.8424 86.293 51.1079 85.7623 C 51.1079 85.7623 54.1604 89.2126 56.0179 87.3547"/>
<path id="path52" fill="#f7e4cd" d="M 37.9732 85.4029 C 37.9732 85.4029 37.3107 90.6986 32.7957 87.6198 C 29.8764 85.6294 30.142 82.8428 30.6726 82.3121 C 31.2033 81.7811 31.059 80.7122 31.4631 81.4459 C 31.8669 82.1795 31.7339 84.5681 33.1938 85.2313 C 34.6535 85.8949 37.0464 86.6361 37.9732 85.4029"/>
<path id="path54" fill="#49728b" d="M 25.4975 49.5362 L 13.0242 43.963 C 13.0242 43.963 18.1994 23.3949 15.5452 17.0255 L 13.6874 17.6887 L 13.5548 25.518 L 10.1051 40.3798 L 8.64522 44.4936 L 21.6492 53.2512 L 25.4975 49.5362"/>
<path id="path56" fill="#49728b" d="M 26.7801 38.16 L 28.5497 36.0008 L 28.5497 28.039 L 26.4263 28.039 C 26.4263 28.039 26.1611 33.6123 26.1611 34.276 C 26.1611 34.9395 26.4263 37.328 26.4263 37.328"/>
<polyline id="path58" fill="#49728b" points="26.8244,26.8447 20.853,26.5796 22.5783,25.3854 26.8244,24.7218"/>
<polyline id="path60" fill="#335061" points="47.26,28.172 52.1696,28.3046 53.3639,16.0963 48.3213,15.4331 47.26,28.172"/>
<path id="path62" fill="#335061" d="M 48.5868 28.172 L 56.0179 28.5701 C 56.0179 28.5701 59.0697 36.2664 59.0697 36.6645 C 59.0697 37.0626 61.7237 47.8109 61.7237 47.8109 L 55.7524 54.0474 L 54.5581 55.1091 L 51.3734 51.9244 L 51.3734 39.5836 L 48.5868 28.172"/>
<path id="path64" fill="#49728b" d="M 51.9041 29.1008 L 47.26 28.172 L 47.9232 24.4562 C 49.6481 23.66 52.5677 25.7834 52.5677 25.7834"/>
<polyline id="path66" fill="#49728b" points="52.037,52.3225 61.3256,45.4224 61.5912,48.6071 54.5581,55.1091 52.037,52.3225"/>
<polyline id="path68" fill="#ffffff" points="31.4295,2.02948 28.6822,13.1775 27.3158,21.4032 27.0898,27.5088 39.524,28.1707 47.26,28.172 46.5565,14.2376 47.7508,3.48919 47.6182,1.49874 37.5336,0.702564 31.4295,2.02948"/>
<path id="path70" fill="#dcd9d8" d="M 45.5346 28.3046 C 45.5346 28.3046 44.8714 14.504 46.8619 4.68471 C 46.8619 4.68471 42.881 2.16321 37.042 1.49999 L 48.1887 1.89808 L 49.5155 2.69426 L 47.9232 24.4562 L 47.5251 29.1011"/>
<polyline id="path72" fill="#ffffff" points="53.59,17.1568 58.7651,18.6166 68.5844,19.1473 70.0442,23.6588 67.3901,31.4881 64.3384,31.8861 60.092,30.5592 56.0179,28.5701 53.8551,28.9669 52.1696,28.3046"/>
<path id="path74" fill="#dcd9d8" d="M 53.4964 19.8121 C 53.4964 19.8121 56.9463 21.4041 57.4773 21.2715 L 56.0179 28.5701 L 57.7428 29.2333 C 57.7428 29.2333 58.9371 22.3333 58.9371 21.5371 C 58.9371 21.5371 66.3678 21.139 67.0314 21.139 C 67.0314 21.139 68.6238 24.1911 68.2257 27.3758 L 69.6855 23.1295 L 69.8181 20.7409 L 67.6951 17.5562 L 65.3065 17.0255 L 61.3256 17.1581 L 59.9988 18.883 L 55.3543 18.2197 L 53.8945 17.6887"/>
<path id="path76" fill="#ffffff" fill-rule="nonzero" d="M 48.2818 29.232 L 45.3627 36.6632 L 42.3105 41.0422 C 42.3105 41.0422 42.9737 42.9001 43.9029 42.9001 L 46.955 42.9001 L 49.8742 41.8384 L 49.6091 36.9287 L 48.2818 29.232"/>
<path id="path78" fill="#dcd9d8" d="M 48.8523 31.7548 C 48.8523 31.7548 45.1365 38.9201 45.1365 39.9817 C 45.1365 39.9817 45.7998 41.574 46.7289 41.176 C 47.658 40.7779 49.6485 39.7166 49.6485 39.7166 L 49.6485 42.2377 L 45.1365 43.1668 L 42.0848 42.7687 L 47.26 30.5605 L 48.3213 30.4275"/>
<polyline id="path80" fill="#ffffff" fill-rule="nonzero" points="32.6239,49.2691 28.9478,49.6688 25.4975,50.7305 25.4975,49.5362 27.1833,47.6772 32.4911,45.2886"/>
<path id="path82" fill="#dcd9d8" d="M 26.6922 48.8714 C 26.6922 48.8714 30.8061 47.1461 32.133 47.5442 L 32.265 45.9534 L 28.5502 46.748 L 26.2941 48.3404 L 26.6922 48.8714"/>
<path id="path84" fill="#d33833" d="M 53.5756 42.4482 C 51.324 42.5143 49.2898 42.7818 47.5088 43.2842 C 47.6298 44.0143 47.4033 44.7309 47.5852 45.2568 C 48.0816 45.6143 48.9136 45.6087 49.664 45.6927 C 49.0151 46.0115 48.1035 46.1377 47.3547 45.9534 C 47.3372 46.4602 47.1099 46.7743 46.9721 47.1708 C 48.2381 47.6226 51.2265 50.5848 52.9076 49.6039 C 53.7086 49.1373 54.049 46.4725 54.1111 45.1768 C 54.1628 44.1019 54.0135 43.0175 53.5756 42.4482"/>
<path id="path86" stroke="#d33833" stroke-width="2.5" d="M 53.5756 42.4482 C 51.324 42.5143 49.2898 42.7818 47.5088 43.2842 C 47.6298 44.0143 47.4033 44.7309 47.5852 45.2568 C 48.0816 45.6143 48.9136 45.6087 49.664 45.6927 C 49.0151 46.0115 48.1035 46.1377 47.3547 45.9534 C 47.3372 46.4602 47.1099 46.7743 46.9721 47.1708 C 48.2381 47.6226 51.2265 50.5848 52.9076 49.6039 C 53.7086 49.1373 54.049 46.4725 54.1111 45.1768 C 54.1628 44.1019 54.0135 43.0175 53.5756 42.4482 Z"/>
<path id="path88" fill="#d33833" d="M 42.8085 46.129 C 42.8025 45.9586 42.7954 45.787 42.7886 45.615 C 42.0856 45.1533 40.9506 45.1588 40.1791 44.7707 C 41.3165 44.7209 42.2118 44.4471 42.9865 44.0609 C 42.9693 43.6318 42.953 43.203 42.9363 42.7739 C 41.6477 41.8917 40.4705 40.578 38.9533 39.7508 C 38.236 39.3595 35.7184 38.3528 34.9552 38.5307 C 34.5234 38.631 34.4845 39.1668 34.3119 39.6719 C 33.9441 40.7536 33.0974 42.4753 33.0235 44.1035 C 32.9295 46.16 32.7219 49.6067 34.9381 49.1831 C 36.7261 48.842 38.8056 48.0183 40.1899 47.2619 C 41.0358 46.7994 41.5251 46.2277 42.8085 46.129"/>
<path id="path90" stroke="#d33833" stroke-width="2.5" d="M 42.8085 46.129 C 42.8025 45.9586 42.7954 45.787 42.7886 45.615 C 42.0856 45.1533 40.9506 45.1588 40.1791 44.7707 C 41.3165 44.7209 42.2118 44.4471 42.9865 44.0609 C 42.9693 43.6318 42.953 43.203 42.9363 42.7739 C 41.6477 41.8917 40.4705 40.578 38.9533 39.7508 C 38.236 39.3595 35.7184 38.3528 34.9552 38.5307 C 34.5234 38.631 34.4845 39.1668 34.3119 39.6719 C 33.9441 40.7536 33.0974 42.4753 33.0235 44.1035 C 32.9295 46.16 32.7219 49.6067 34.9381 49.1831 C 36.7261 48.842 38.8056 48.0183 40.1899 47.2619 C 41.0358 46.7994 41.5251 46.2277 42.8085 46.129 L 42.8085 46.129 Z"/>
<path id="path92" fill="#d33833" d="M 44.0884 43.6752 C 43.8917 44.7954 43.6644 45.115 43.7524 46.0924 C 46.74 48.0844 47.301 42.6708 44.0884 43.6752"/>
<path id="path94" stroke="#d33833" stroke-width="2.5" d="M 44.0884 43.6752 C 43.8917 44.7954 43.6644 45.115 43.7524 46.0924 C 46.74 48.0844 47.301 42.6708 44.0884 43.6752 Z"/>
<path id="path96" fill="#ef3d3a" d="M 48.4144 42.7671 C 48.4144 42.7671 47.4853 44.0943 48.1489 44.4924 C 48.8125 44.8905 49.4761 44.492 49.8742 45.1557 C 50.2723 45.8193 49.8742 46.2174 50.0068 47.0135 C 50.1393 47.8097 50.8033 47.9427 51.4666 48.0752 C 52.1298 48.2078 53.9881 48.4733 54.2532 47.8097 L 53.457 50.1982 L 51.8647 50.7289 L 46.8221 47.8097 L 46.5565 46.3499 L 46.5565 43.4307"/>
<path id="path98" fill="#ef3d3a" d="M 34.4814 38.3881 C 34.322 40.459 34.1533 42.5271 33.9656 44.5959 C 33.6847 47.6851 34.7076 47.1461 37.3854 47.1461 C 37.7944 47.1461 39.9037 46.6584 40.0545 46.3499 C 40.7783 44.8718 38.8443 45.2002 40.8881 44.0856 C 42.6135 43.1449 45.6612 44.6568 44.9642 46.748 C 44.574 47.213 42.9315 46.8929 42.3428 47.1982 C 41.3061 47.7357 40.2695 48.2731 39.2328 48.8105 C 37.9138 49.4948 34.8654 50.4924 33.4592 49.5362 C 29.8962 47.1131 33.6841 41.0585 34.9552 38.5307"/>
<path id="path100" fill="#231f20" d="M 37.9732 85.4029 C 34.3565 86.2452 32.5594 83.8893 31.4631 81.4459 C 30.4842 81.6831 30.8737 83.0143 31.1209 83.6927 C 31.7683 85.4729 34.3772 87.8428 36.5088 87.5215 C 37.4262 87.3834 38.6675 86.5446 37.9732 85.4029"/>
<path id="path102" fill="#231f20" d="M 55.5951 81.2842 C 55.6521 81.2818 55.7098 81.2799 55.7667 81.2775 C 56.584 79.5796 57.2914 77.7811 58.3225 76.2822 C 57.6318 74.6736 53.0924 73.25 53.1624 76.1385 C 54.1441 76.5677 55.8388 76.2261 56.709 76.7743 C 56.2058 78.1553 55.4797 79.3308 55.5951 81.2842"/>
<path id="path104" fill="#231f20" d="M 39.8248 81.2401 C 40.6003 79.8185 40.8527 78.3248 41.955 77.2504 C 42.4514 76.7667 43.4168 76.1771 42.9383 74.832 C 42.8264 74.5147 42.0092 73.8073 41.5374 73.6684 C 39.8141 73.1596 35.7985 73.5633 37.1584 75.7118 C 38.5836 75.6453 40.4992 74.7862 41.5645 75.8209 C 40.7464 77.1286 39.288 79.7158 39.8248 81.2401"/>
<path id="path106" fill="#231f20" d="M 54.9482 66.7918 C 52.3535 65.125 49.4602 63.3125 45.2086 63.7329 C 44.3002 64.5227 43.9538 66.2803 44.8364 67.4411 C 45.2958 66.6513 45.0072 65.1986 46.2874 64.9801 C 48.6998 64.5673 51.5076 66.4558 53.2428 67.1158 C 54.3189 68.9299 53.1501 69.5971 52.1807 70.7647 C 50.1963 73.1568 47.5342 76.1218 47.631 79.703 C 48.4331 80.2846 48.5024 78.8153 48.6174 78.5478 C 49.6537 76.1226 52.2615 73.0211 54.1648 70.9455 C 54.6322 70.4343 55.4017 69.9439 55.4873 69.6059 C 55.7341 68.623 54.8451 67.4455 54.9482 66.7918"/>
<path id="path108" fill="#231f20" d="M 20.7411 68.5466 C 19.9278 69.0107 19.7342 71.0553 18.7794 71.1135 C 17.4148 71.1963 17.6637 68.461 17.6691 66.8615 C 16.7299 67.7142 16.5647 70.3396 17.2547 71.6879 C 16.4683 72.074 16.1172 71.2619 15.681 70.9757 C 16.2416 75.0482 21.6383 72.8646 20.7411 68.5466"/>
<path id="path110" fill="#231f20" d="M 56.6003 65.0959 C 55.3925 62.797 53.6839 60.2651 50.1397 60.1915 C 50.0677 60.9339 50.0123 62.0637 50.1437 62.5107 C 52.8531 62.7711 54.5259 64.1501 56.6003 65.0959"/>
<path id="path112" fill="#231f20" d="M 39.6205 63.6055 C 41.881 62.4168 46.0354 62.289 49.1079 62.379 C 49.2727 61.7058 49.2687 60.8742 49.2751 60.0533 C 45.3256 59.8563 40.6561 60.8336 39.6205 63.6055"/>
<path id="path114" fill="#231f20" d="M 39.1908 61.3889 C 40.754 57.4642 46.1266 57.916 50.6572 58.0243 C 50.4578 57.5147 50.0255 56.9128 49.4881 56.6951 C 48.0362 56.1043 44.0318 55.6561 42.0163 56.7265 C 40.7381 57.4061 39.9168 58.9415 39.2164 59.8416 C 38.8782 60.2763 37.1941 61.3865 39.1908 61.3889"/>
<path id="path116" fill="#81b0c4" d="M 54.7596 39.7397 C 52.9252 36.5979 51.17 33.3711 48.9936 30.5998 C 49.9061 33.2826 50.2966 37.7728 50.4343 41.1959 C 52.3432 42.0892 53.9777 40.9948 54.7596 39.7397"/>
<path id="path118" fill="#231f20" d="M 64.6306 28.4478 C 62.5768 28.0367 61.1338 26.0406 59.1302 26.1688 C 60.2313 27.721 62.1608 28.3754 64.6306 28.4478"/>
<path id="path120" fill="#231f20" d="M 65.5366 25.2337 C 63.8627 25.0569 61.8965 24.7859 60.1986 24.9255 C 61.0024 26.1532 64.0991 25.7296 65.5366 25.2337"/>
<path id="path122" fill="#231f20" d="M 66.1166 22.4627 C 64.2353 22.4219 61.8969 22.4594 60.1087 22.6094 C 61.1664 23.7455 64.8965 23.031 66.1166 22.4627"/>
<path id="path124" fill="#dcd9d8" d="M 51.2197 14.8794 C 51.4897 12.5166 52.4264 10.1227 52.3089 7.53507 C 51.2687 7.18428 50.6712 6.87747 49.2775 6.87934 C 49.1791 9.07846 48.885 12.4403 48.9729 14.5366 C 49.6584 14.4912 50.6692 15.0263 51.2197 14.8794"/>
<path id="path126" fill="#f0d6b7" d="M 48.1867 49.701 C 47.242 49.0844 46.4375 48.3145 45.5303 47.6561 C 43.5183 47.5565 42.4204 47.7954 40.9423 48.9506 C 40.9666 49.0434 41.115 49.002 41.1206 49.1158 C 43.2743 48.1561 46.0119 49.5068 48.1867 49.701"/>
<path id="path128" fill="#81b0c4" d="M 36.8808 35.0203 C 37.4725 37.5844 39.791 38.9124 41.8965 40.3244 C 44.0697 37.5664 45.3913 34.0195 46.8467 30.5967 C 43.408 31.6333 39.8945 33.3152 36.8808 35.0203"/>
<path id="path130" fill="#231f20" d="M 48.9729 14.5366 C 48.885 12.4403 49.1791 9.07846 49.2775 6.87934 C 50.6712 6.87747 51.2687 7.18428 52.3089 7.53507 C 52.4264 10.1227 51.4897 12.5166 51.2197 14.8794 C 50.6692 15.0263 49.6584 14.4912 48.9729 14.5366 L 48.9729 14.5366 Z M 27.2715 26.4589 C 28.1905 18.0103 29.5216 10.9081 31.963 3.42668 C 37.3815 1.78145 43.9136 1.63807 48.703 3.12267 C 47.8236 7.34522 48.2078 12.486 47.6939 16.992 C 47.3065 20.3789 47.504 23.7866 46.9729 27.242 C 41.1696 28.4494 32.9668 27.5243 27.2715 26.4589 L 27.2715 26.4589 Z M 48.3451 27.189 C 48.2962 23.5605 48.5076 19.9813 48.7846 16.3482 C 50.1779 16.5574 51.1234 16.6971 52.418 16.9809 C 51.9976 20.4784 52.0494 24.4141 51.1931 27.508 C 50.2034 27.4985 49.332 27.5195 48.3451 27.189 L 48.3451 27.189 Z M 55.4132 27.7739 C 54.752 27.9255 53.9821 27.7798 53.3503 27.7675 C 53.6473 24.8097 54.3678 21.5458 54.6214 18.441 C 55.6154 18.4101 56.1465 18.8789 56.9642 19.0366 C 57.008 21.7619 56.7261 25.5167 55.4132 27.7739 L 55.4132 27.7739 Z M 66.1154 17.9957 C 68.1875 18.4988 69.4904 21.0367 68.9108 23.6429 C 68.5219 25.3945 67.8292 28.6928 67.088 29.8133 C 66.5402 30.6421 65.0549 31.7272 63.869 30.9678 C 61.9399 29.7324 58.5414 29.3738 57.1346 27.8785 C 57.84 25.5298 58.0589 22.3037 58.3499 19.3277 C 60.76 19.1775 63.7253 19.9909 65.7297 19.1277 C 64.3304 18.6744 62.5147 18.6709 61.3057 18.0103 C 62.2938 17.533 64.6071 17.6295 66.1154 17.9957 L 66.1154 17.9957 Z M 46.8467 30.5967 C 45.3913 34.0195 44.0697 37.5664 41.8965 40.3244 C 39.791 38.9124 37.4725 37.5844 36.8808 35.0203 C 39.8945 33.3152 43.408 31.6333 46.8467 30.5967 Z M 50.4343 41.1959 C 50.2966 37.7728 49.9061 33.2826 48.9936 30.5998 C 51.17 33.3711 52.9252 36.5979 54.7596 39.7397 C 53.9777 40.9948 52.3432 42.0892 50.4343 41.1959 L 50.4343 41.1959 Z M 46.3674 42.6409 C 45.543 42.7297 44.8432 41.6931 43.7711 42.1413 C 43.5255 41.8698 43.3022 41.5756 43.0518 41.3105 C 45.4196 38.457 46.4956 34.4084 48.3244 31.055 C 49.3057 34.2763 49.1927 37.8054 49.4088 41.3213 C 48.0605 41.2357 47.3125 42.5406 46.3674 42.6409 Z M 43.7524 46.0924 C 43.6644 45.115 43.8917 44.7954 44.0884 43.6752 C 47.301 42.6708 46.74 48.0844 43.7524 46.0924 Z M 40.1899 47.2619 C 38.8056 48.0183 36.7261 48.842 34.9381 49.1831 C 32.7219 49.6071 32.9295 46.16 33.0235 44.1035 C 33.0974 42.4753 33.9441 40.7536 34.3119 39.6719 C 34.4845 39.1668 34.5234 38.631 34.9552 38.5307 C 35.7184 38.3528 38.236 39.3595 38.9533 39.7508 C 40.4705 40.578 41.6477 41.8917 42.9363 42.7739 C 42.953 43.203 42.9693 43.6318 42.9865 44.0609 C 42.2118 44.4471 41.3165 44.7209 40.1791 44.7707 C 40.9506 45.1588 42.0856 45.1533 42.7886 45.615 C 42.7954 45.787 42.8025 45.9586 42.8085 46.129 C 41.5251 46.2277 41.0358 46.7994 40.1899 47.2619 L 40.1899 47.2619 Z M 26.9679 49.6636 C 25.819 48.4972 30.1902 46.9072 31.582 46.8217 C 31.5742 47.5597 32.0026 48.2556 31.9163 48.785 C 30.2633 49.0752 28.091 48.8838 26.9679 49.6636 L 26.9679 49.6636 Z M 41.1206 49.1158 C 41.115 49.002 40.9666 49.0434 40.9423 48.9506 C 42.4204 47.7954 43.5183 47.5565 45.5303 47.6561 C 46.4375 48.3145 47.242 49.0844 48.1867 49.701 C 46.0119 49.5068 43.2743 48.1561 41.1206 49.1158 L 41.1206 49.1158 Z M 54.1111 45.1768 C 54.049 46.4725 53.7086 49.1373 52.9076 49.6039 C 51.2265 50.5852 48.2381 47.6226 46.9721 47.1708 C 47.1099 46.7743 47.3372 46.4602 47.3547 45.9534 C 48.1035 46.1377 49.0151 46.0115 49.664 45.6927 C 48.9136 45.6087 48.0816 45.6143 47.5852 45.2568 C 47.4033 44.7309 47.6298 44.0143 47.5088 43.2842 C 49.2898 42.7818 51.324 42.5143 53.5756 42.4482 C 54.0135 43.0175 54.1628 44.1019 54.1111 45.1768 L 54.1111 45.1768 Z M 25.0338 48.5354 C 24.673 48.7926 22.2324 51.9682 21.898 51.8364 C 17.4817 50.0947 13.3523 47.0832 9.66222 44.2349 C 13.1805 36.6855 14.6007 27.4363 14.8517 18.5216 C 18.882 16.6365 22.4221 13.9191 27.8911 13.6354 C 27.2582 18.1131 26.6805 22.108 26.3213 26.3236 C 24.9471 26.9029 22.9756 26.2974 21.6896 26.5033 C 21.6787 28.053 23.6537 27.1819 23.8182 28.224 C 23.9421 29.0123 22.7315 29.072 23.1257 30.3133 C 24.1311 29.9478 24.659 29.1406 25.7312 28.8375 C 26.7109 30.9808 25.7175 34.7731 25.8587 36.5645 C 25.8854 36.9008 26.0266 38.4279 26.7801 38.16 C 27.4469 37.9228 26.742 34.0987 26.815 32.4032 C 26.8816 30.8412 26.6264 29.3297 27.259 28.3491 C 32.5438 29.0684 37.9141 29.5334 43.6322 29.6903 C 42.3742 30.2301 40.8798 30.7409 39.2413 31.6644 C 38.3531 32.1651 35.5533 33.207 35.297 34.0506 C 34.888 35.3949 36.3699 36.111 36.6234 37.2635 C 33.9558 35.8086 33.4353 38.658 32.8043 40.6768 C 32.2325 42.5052 31.907 43.871 31.7667 44.9256 C 29.4687 46.0211 27.0117 47.1306 25.0338 48.5354 L 25.0338 48.5354 Z M 51.7771 51.4522 C 55.4566 53.2365 56.1198 44.7838 54.6775 42.0609 C 54.9005 41.2488 55.6672 40.9379 55.9801 40.2078 C 53.9268 36.5295 51.6461 33.096 49.551 29.4609 C 51.1095 30.4311 53.3356 29.6345 55.1696 30.3607 C 55.84 30.6258 56.3252 32.1605 56.8328 33.3882 C 58.2289 36.7659 59.6947 41.0243 60.3467 44.2476 C 60.494 44.9821 60.8953 46.5824 60.8053 47.2361 C 60.6449 48.4064 59.0569 49.2743 58.2492 49.998 C 56.7611 51.3348 55.824 52.5111 54.2719 53.7611 C 53.6425 52.832 52.2918 52.2078 51.7771 51.4522 L 51.7771 51.4522 Z M 16.6187 84.0828 C 14.8654 82.1537 15.2324 78.539 15.4446 75.9674 C 18.6138 77.961 22.8201 75.8097 22.7805 72.4188 C 24.2936 72.459 23.3457 74.3085 23.0721 75.5 C 22.1776 79.3917 24.5789 83.6198 23.1809 87.1787 C 20.4666 86.9729 18.2367 85.8643 16.6187 84.0828 L 16.6187 84.0828 Z M 29.1639 95.2795 C 25.1947 94.1545 20.1077 91.2703 18.4766 87.7046 C 19.7396 87.8881 20.6164 88.5251 21.8623 88.6039 C 22.3331 88.6346 22.95 88.4064 23.4912 88.541 C 24.5696 88.8085 25.4797 91.2265 26.2933 92.1262 C 27.0864 93.0048 28.0396 93.3802 28.692 94.1811 C 29.1111 94.3834 29.7307 94.3694 29.7545 94.9988 C 29.5729 95.1931 29.3816 95.3412 29.1639 95.2795 L 29.1639 95.2795 Z M 49.826 94.2213 C 45.7062 96.5458 38.7328 98.2942 34.3504 96.1095 C 30.8143 94.3463 26.0344 91.4291 24.4047 87.7325 C 25.9271 84.1652 23.9538 80.8965 23.8278 77.2747 C 23.7609 75.3475 24.7352 73.6652 24.8098 71.5673 C 24.2889 70.7078 22.6973 70.6019 21.5955 70.6608 C 21.2247 72.5167 20.5754 74.6027 18.6643 74.8121 C 15.9601 75.1079 13.9829 72.8698 13.86 70.5311 C 13.7147 67.7807 15.9725 63.2221 19.1728 63.5386 C 20.4091 63.6608 20.7128 64.9001 22.0598 64.8873 C 22.7898 63.4307 20.9336 62.9733 20.7426 61.9315 C 20.6929 61.6624 20.8966 60.6107 21.015 60.1174 C 21.5963 57.7158 22.8922 54.6075 24.1676 52.7791 C 25.7864 50.4598 28.9668 50.1103 32.3883 49.883 C 32.9994 51.1994 35.2506 51.0912 36.7175 50.7468 C 34.9596 51.4431 33.3252 53.131 31.9707 54.625 C 30.4149 56.3392 28.8389 58.1779 28.7593 60.4184 C 31.6994 56.3396 34.1284 52.7775 39.4746 50.9833 C 43.5199 49.6266 48.2444 51.6051 51.3527 53.7878 C 52.6425 54.6951 53.4124 56.1346 54.3292 57.4522 C 57.7596 62.3865 59.3603 69.4295 59.0084 76.256 C 58.8635 79.0713 58.8698 81.877 57.9252 83.7711 C 56.9379 85.7516 53.5987 87.5235 51.6441 85.7321 C 51.2818 87.658 53.2695 88.8491 55.6043 88.1561 C 53.9395 90.3045 52.1923 92.8861 49.826 94.2213 L 49.826 94.2213 Z M 57.5016 30.6994 C 60.7209 32.2998 66.7361 35.0071 68.7544 30.6935 C 69.4992 29.1034 70.373 26.4156 70.7588 24.7742 C 71.3037 22.4586 70.168 17.5915 67.7878 16.8145 C 65.6855 16.1282 63.2325 16.17 60.7002 16.6787 C 60.4021 16.9267 60.0701 17.359 59.838 17.8097 C 58.0299 17.8798 56.3368 17.7126 54.9084 16.9693 C 55.0438 15.6322 54.1393 15.4176 53.2914 15.1422 C 52.6628 12.6498 54.549 9.3949 54.0975 7.12221 C 53.7755 5.50311 51.7834 5.25275 50.3193 4.94984 C 50.2715 4.05008 50.3834 3.29901 50.4833 2.53782 C 50.1485 1.30421 48.6469 0.601955 47.2241 0.429968 C 42.543 -0.132955 35.4354 -0.385805 30.9328 1.2333 C 29.6763 4.31521 28.6865 8.06365 27.64 11.5828 C 23.2486 11.1139 19.6969 13.4777 16.3486 15.0263 C 15.1893 15.5637 13.5856 15.8598 13.1525 16.7826 C 12.7326 17.676 12.9045 19.3882 12.8003 21.0056 C 12.5352 25.1365 12.3081 29.121 11.2172 33.3507 C 10.7274 35.2488 9.87369 36.9236 9.2781 38.7524 C 8.72763 40.4475 7.76584 42.5422 7.51501 44.2325 C 7.14307 46.7377 9.50203 46.877 11.0104 47.9626 C 13.3422 49.6413 15.1725 50.5697 17.6979 52.0848 C 18.4458 52.5334 20.7014 53.6692 20.958 54.1923 C 21.468 55.2293 20.0825 56.6915 19.7121 57.5044 C 19.1262 58.7898 18.8206 59.8818 18.7366 61.1501 C 16.6182 61.4849 15.0123 62.7456 14.0423 64.1672 C 12.4377 66.5199 11.3248 70.8726 12.7132 74.1835 C 12.8221 74.4443 13.365 74.957 13.4451 75.3575 C 13.6031 76.1461 13.1478 77.1947 13.1195 78.0334 C 12.9736 82.3368 13.8476 86.0446 16.7446 87.3424 C 17.9207 92.0275 22.13 93.5852 26.0958 95.9136 C 27.5783 96.7838 29.2124 97.34 30.9001 97.961 C 36.9543 100.189 46.2432 99.7695 51.2679 95.9693 C 53.3985 94.3579 56.8041 90.9554 58.0223 88.492 C 61.2397 81.9885 61.0111 71.1194 58.7607 63.2082 C 58.4582 62.1461 58.0195 60.5848 57.4068 59.3089 C 56.9797 58.418 55.6521 56.6353 55.8133 55.8487 C 55.9793 55.0354 58.8404 52.8631 59.4538 52.2715 C 60.5585 51.2058 62.6572 49.7914 62.8272 48.4467 C 63.01 47.0155 62.1967 45.0577 61.7846 43.6768 C 60.4072 39.0681 59.0633 34.8081 57.5016 30.6994 L 57.5016 30.6994 Z"/>
<path id="path132" fill="#f7e4cd" d="M 36.0235 62.6015 C 36.1981 62.834 37.1584 63.1871 38.5019 62.5402 C 38.5019 62.5402 36.9096 62.2747 37.042 59.6198 L 36.3785 59.7528 C 36.3785 59.7528 35.6928 62.16 36.0235 62.6015"/>
<path id="path134" fill="#1d1919" d="M 47.658 39.7826 C 47.658 39.3797 47.3312 39.053 46.9279 39.053 C 46.5251 39.053 46.1982 39.3797 46.1982 39.7826 C 46.1982 40.1855 46.5251 40.5127 46.9279 40.5127 C 47.3312 40.5127 47.658 40.1855 47.658 39.7826"/>
<path id="path136" fill="#1d1919" d="M 48.3877 36.3989 C 48.3877 35.996 48.0609 35.6693 47.6576 35.6693 C 47.2548 35.6693 46.9279 35.996 46.9279 36.3989 C 46.9279 36.8018 47.2548 37.129 47.6576 37.129 C 48.0609 37.129 48.3877 36.8018 48.3877 36.3989"/>
</g>
</g>
</svg>