<svg xmlns="http://www.w3.org/2000/svg" class="logo" viewBox="0 0 356 68">
  <path class="shadow" d="M 65.315 11.378 l -19.93 48.814 l -12.727 7.34 V 48.766 l 5.938 -4.092 L 50.472 19.05 v -5.217 l 14.843 -8.64 v 6.184 Z m -32.657 24.03 v 7.455 l -5.94 2.937 l -11.875 -26.748 v -5.218 l 8.846 -5.117 l 0.06 0.035 v 5.874 l 8.905 20.78 Z"/>
  <path class="front" d="M 56.417 0 L 41.574 8.693 l -0.006 -0.005 v 5.937 l -8.91 20.78 v 6.947 l -5.94 3.447 l -11.875 -26.75 v -5.23 l 8.91 -5.124 L 8.903 0 L 0 5.194 v 6.372 L 20.048 60.25 l 12.61 7.28 V 49.24 l 5.938 -3.44 l -0.076 -0.047 l 11.952 -26.7 v -5.22 l 0.006 -0.01 l 14.843 -8.63"/>
  <path class="text" d="M 88 13.94 V 9.56 h -4 v 4.38 h -2 V 3.42 h 2 v 4.41 h 4 V 3.42 h 2 v 10.52 h -2 Z m 9.54 0 H 95.9 l -0.15 -0.51 c -0.705 0.438 -1.52 0.67 -2.35 0.67 c -1.44 0 -2.06 -1 -2.06 -2.26 c 0 -1.54 0.7 -2.13 2.3 -2.13 h 1.9 v -0.8 c 0 -0.84 -0.24 -1.14 -1.51 -1.14 c -0.736 0.006 -1.47 0.083 -2.19 0.23 l -0.24 -1.45 c 0.884 -0.235 1.795 -0.356 2.71 -0.36 c 2.48 0 3.21 0.84 3.21 2.74 l 0.02 5.01 Z m -2 -2.87 h -1.46 c -0.65 0 -0.83 0.17 -0.83 0.75 s 0.18 0.76 0.8 0.76 c 0.52 -0.007 1.032 -0.14 1.49 -0.39 v -1.12 Z m 6.13 3 c -0.926 -0.015 -1.846 -0.163 -2.73 -0.44 l 0.28 -1.45 c 0.766 0.21 1.556 0.322 2.35 0.33 c 0.88 0 1 -0.19 1 -0.76 c 0 -0.57 -0.1 -0.7 -1.38 -1 c -1.93 -0.45 -2.16 -0.92 -2.16 -2.38 s 0.7 -2.2 3 -2.2 c 0.797 0 1.592 0.086 2.37 0.26 L 104.17 8 c -0.716 -0.138 -1.44 -0.22 -2.17 -0.25 c -0.86 0 -1 0.19 -1 0.65 s 0 0.65 1.12 0.92 c 2.21 0.56 2.42 0.84 2.42 2.4 s -0.49 2.38 -2.87 2.38 v -0.03 Z m 9.06 -0.16 V 8.64 c 0 -0.41 -0.18 -0.61 -0.63 -0.61 c -0.722 0.078 -1.42 0.296 -2.06 0.64 v 5.27 h -2 V 3.27 l 2 0.3 v 3.36 c 0.902 -0.442 1.886 -0.69 2.89 -0.73 c 1.31 0 1.79 0.89 1.79 2.24 v 5.5 l -1.99 -0.03 Z m 3.64 -8.66 V 3.42 h 2 v 1.86 l -2 -0.03 Z m 0 8.66 V 6.35 h 2 v 7.59 l -2 -0.03 Z m 3.56 -7.53 c 0 -1.9 1.15 -3 3.85 -3 c 0.99 0 1.977 0.113 2.94 0.34 l -0.23 1.7 c -0.872 -0.157 -1.754 -0.244 -2.64 -0.26 c -1.41 0 -1.87 0.47 -1.87 1.57 v 4 c 0 1.11 0.45 1.57 1.87 1.57 c 0.886 -0.016 1.768 -0.103 2.64 -0.26 l 0.23 1.7 c -0.963 0.227 -1.95 0.34 -2.94 0.34 c -2.69 0 -3.85 -1.11 -3.85 -3 v -4.7 Z m 11.16 7.68 c -2.71 0 -3.44 -1.43 -3.44 -3 V 9.19 c 0 -1.56 0.73 -3 3.44 -3 s 3.44 1.43 3.44 3 v 1.91 c 0 1.56 -0.73 3 -3.44 3 v -0.04 Z m 0 -6.28 c -1.05 0 -1.46 0.45 -1.46 1.31 v 2 c 0 0.86 0.41 1.31 1.46 1.31 s 1.46 -0.45 1.46 -1.31 v -2 c 0 -0.82 -0.41 -1.27 -1.46 -1.27 v -0.04 Z m 9 0.12 c -0.723 0.314 -1.422 0.68 -2.09 1.1 v 4.89 h -2 V 6.35 h 1.67 l 0.13 0.84 c 0.648 -0.42 1.347 -0.757 2.08 -1 l 0.21 1.71 Z m 7.91 3.52 c 0 1.68 -0.78 2.68 -2.61 2.68 c -0.71 -0.007 -1.415 -0.08 -2.11 -0.22 V 17 l -2 0.3 V 6.35 h 1.57 l 0.19 0.64 c 0.73 -0.52 1.604 -0.795 2.5 -0.79 c 1.59 0 2.43 0.9 2.43 2.63 l 0.03 2.59 Z m -4.72 0.86 c 0.576 0.123 1.162 0.19 1.75 0.2 c 0.71 0 1 -0.33 1 -1 v -2.7 c 0 -0.62 -0.24 -1 -1 -1 c -0.65 0.022 -1.276 0.265 -1.77 0.69 l 0.02 3.81 Z M 96.25 46.742 l -7.728 -26.64 h -6.288 l 9.552 31.968 h 8.928 l 9.552 -31.968 h -6.288 l -7.728 26.64 Z m 33.248 -10.08 V 52.07 h -4.8 l -0.432 -1.584 c -2.112 1.392 -4.608 2.064 -6.96 2.064 c -4.272 0 -6.096 -2.928 -6.096 -6.96 c 0 -4.752 2.064 -6.576 6.816 -6.576 h 5.616 v -2.448 c 0 -2.592 -0.72 -3.504 -4.464 -3.504 c -2.112 0 -4.416 0.288 -6.48 0.72 l -0.72 -4.464 c 2.208 -0.672 5.424 -1.104 8.016 -1.104 c 7.344 0 9.504 2.592 9.504 8.448 Z m -5.856 10.032 v -3.456 h -4.32 c -1.92 0 -2.448 0.528 -2.448 2.304 c 0 1.632 0.528 2.352 2.352 2.352 c 1.728 0 3.312 -0.576 4.416 -1.2 Z m 19.664 -0.864 c -0.48 0 -0.912 0 -1.344 -0.048 c -0.768 0.48 -1.392 1.152 -1.392 1.872 c 0 0.624 0.384 0.912 1.296 1.008 c 2.592 0.288 4.032 0.432 6.768 0.72 c 3.792 0.432 4.992 2.304 4.992 5.664 c 0 4.992 -1.824 6.96 -10.56 6.96 c -2.688 0 -6.384 -0.384 -9.024 -1.2 l 0.72 -4.368 c 2.496 0.624 5.136 1.008 7.872 1.008 c 4.656 0 5.568 -0.336 5.568 -1.872 c 0 -1.44 -0.432 -1.68 -2.208 -1.872 c -2.688 -0.288 -3.792 -0.432 -6.768 -0.768 c -3.312 -0.384 -4.608 -1.488 -4.608 -4.464 c 0 -1.92 1.296 -3.168 2.448 -3.984 c -2.16 -1.296 -3.168 -3.456 -3.168 -6.288 V 35.99 c 0.096 -4.848 2.64 -7.776 9.408 -7.776 c 1.584 0 2.832 0.192 3.984 0.48 h 7.2 v 2.928 c -0.816 0.24 -1.776 0.48 -2.592 0.72 c 0.528 1.008 0.816 2.304 0.816 3.648 v 2.208 c 0 4.752 -2.88 7.632 -9.408 7.632 Z m 3.936 -9.648 c 0 -2.208 -1.008 -3.264 -3.936 -3.264 c -2.88 0 -3.888 1.056 -3.888 3.264 v 1.776 c 0 2.304 1.152 3.168 3.888 3.168 c 2.784 0 3.936 -0.912 3.936 -3.168 v -1.776 Z m 22.64 -7.968 c -2.064 0.576 -4.848 2.208 -6.144 3.072 l -0.384 -2.592 h -4.944 V 52.07 h 5.856 V 36.998 c 2.112 -1.344 3.936 -2.4 6.192 -3.408 l -0.576 -5.376 Z m 21.296 8.448 V 52.07 h -4.8 l -0.432 -1.584 c -2.112 1.392 -4.608 2.064 -6.96 2.064 c -4.272 0 -6.096 -2.928 -6.096 -6.96 c 0 -4.752 2.064 -6.576 6.816 -6.576 h 5.616 v -2.448 c 0 -2.592 -0.72 -3.504 -4.464 -3.504 c -2.112 0 -4.416 0.288 -6.48 0.72 l -0.72 -4.464 c 2.208 -0.672 5.424 -1.104 8.016 -1.104 c 7.344 0 9.504 2.592 9.504 8.448 Z m -5.856 10.032 v -3.456 h -4.32 c -1.92 0 -2.448 0.528 -2.448 2.304 c 0 1.632 0.528 2.352 2.352 2.352 c 1.728 0 3.312 -0.576 4.416 -1.2 Z m 31.376 5.376 V 35.126 c 0 -4.176 -1.392 -6.912 -5.28 -6.912 c -2.736 0 -6.432 1.008 -9.36 2.448 l -0.576 -1.968 h -4.464 V 52.07 h 5.856 V 35.846 c 2.112 -1.104 4.656 -1.968 6.096 -1.968 c 1.344 0 1.872 0.624 1.872 1.872 v 16.32 h 5.856 Z m 17.84 -4.896 c -1.008 0.288 -2.064 0.48 -2.928 0.48 c -1.536 0 -2.112 -0.816 -2.112 -2.064 V 33.35 h 5.616 l 0.384 -4.656 h -6 V 22.07 l -5.856 0.816 v 5.808 h -3.504 v 4.656 h 3.504 v 13.008 c 0 4.176 2.16 6.192 6.432 6.192 c 1.488 0 3.888 -0.384 5.136 -0.912 l -0.672 -4.464 Z m 14.08 -3.888 c 0 5.856 3.408 9.264 11.376 9.264 c 2.976 0 6.048 -0.384 8.688 -1.056 l -0.672 -5.232 c -2.592 0.48 -5.616 0.816 -7.824 0.816 c -4.176 0 -5.52 -1.44 -5.52 -4.848 V 29.942 c 0 -3.408 1.344 -4.848 5.52 -4.848 c 2.208 0 5.232 0.336 7.824 0.816 l 0.672 -5.232 c -2.64 -0.672 -5.712 -1.056 -8.688 -1.056 c -7.968 0 -11.376 3.408 -11.376 9.264 v 14.4 Z m 31.04 8.784 V 18.326 l -5.856 0.816 V 52.07 h 5.856 Z m 25.616 -8.736 c 0 4.8 -2.16 9.216 -10.176 9.216 s -10.176 -4.416 -10.176 -9.216 V 37.43 c 0 -4.8 2.16 -9.216 10.176 -9.216 s 10.176 4.416 10.176 9.216 v 5.904 Z m -5.856 -6.096 c 0 -2.64 -1.2 -4.032 -4.32 -4.032 s -4.32 1.392 -4.32 4.032 v 6.288 c 0 2.64 1.2 4.032 4.32 4.032 s 4.32 -1.392 4.32 -4.032 v -6.288 Z m 10.88 -8.544 v 16.944 c 0 4.176 1.392 6.912 5.28 6.912 c 2.736 0 6.432 -1.008 9.36 -2.448 l 0.576 1.968 h 4.464 V 28.694 h -5.856 v 16.224 c -2.112 1.104 -4.656 1.968 -6.096 1.968 c -1.344 0 -1.872 -0.624 -1.872 -1.872 v -16.32 h -5.856 Z m 25.04 15.744 V 36.47 c 0 -5.184 2.304 -8.256 7.728 -8.256 c 2.064 0 4.416 0.288 6.24 0.672 v -9.744 l 5.856 -0.816 V 52.07 h -4.656 l -0.576 -1.968 c -2.064 1.488 -4.464 2.448 -7.392 2.448 c -4.704 0 -7.2 -2.784 -7.2 -8.112 Z m 13.968 1.008 V 33.83 c -1.536 -0.336 -3.504 -0.624 -5.184 -0.624 c -2.112 0 -2.928 1.008 -2.928 3.12 v 8.256 c 0 1.92 0.72 2.976 2.88 2.976 c 1.92 0 3.984 -0.96 5.232 -2.112 Z"/>
</svg>